<svg width="24" height="24" viewBox="0 0 24 24" fill="none" xmlns="http://www.w3.org/2000/svg">
<path fill-rule="evenodd" clip-rule="evenodd" d="M4.35328 9C4.0201 9 3.75 9.2701 3.75 9.60328V18.8967C3.75 19.2299 4.0201 19.5 4.35328 19.5H19.6467C19.9799 19.5 20.25 19.2299 20.25 18.8967V9.60328C20.25 9.2701 19.9799 9 19.6467 9H4.35328ZM2.25 9.60328C2.25 8.44167 3.19167 7.5 4.35328 7.5H19.6467C20.8083 7.5 21.75 8.44167 21.75 9.60328V18.8967C21.75 20.0583 20.8083 21 19.6467 21H4.35328C3.19167 21 2.25 20.0583 2.25 18.8967V9.60328Z" fill="#B0B0B0"/>
<path fill-rule="evenodd" clip-rule="evenodd" d="M6 3.75C6 3.33579 6.33579 3 6.75 3H17.25C17.6642 3 18 3.33579 18 3.75C18 4.16421 17.6642 4.5 17.25 4.5H6.75C6.33579 4.5 6 4.16421 6 3.75Z" fill="#B0B0B0"/>
<path fill-rule="evenodd" clip-rule="evenodd" d="M4.5 6C4.5 5.58579 4.83579 5.25 5.25 5.25H18.75C19.1642 5.25 19.5 5.58579 19.5 6C19.5 6.41421 19.1642 6.75 18.75 6.75H5.25C4.83579 6.75 4.5 6.41421 4.5 6Z" fill="#B0B0B0"/>
</svg>
