<svg width="20" height="20" viewBox="0 0 20 20" fill="none" xmlns="http://www.w3.org/2000/svg">
<path d="M3.125 18.75C2.78125 18.75 2.5 18.4688 2.5 18.125V2.66016C2.5 2.32812 2.67969 2.01563 2.96484 1.85156C3.4375 1.57813 4.38672 1.25 6.25 1.25C7.70312 1.25 9.32813 1.82422 10.7656 2.33203C11.918 2.73828 13.0117 3.125 13.75 3.125C14.707 3.12109 15.6406 2.93359 16.5234 2.55859C16.6992 2.48438 16.8906 2.48438 17.0664 2.55469C17.2383 2.625 17.375 2.76172 17.4492 2.93359C17.4844 3.01953 17.5039 3.11328 17.5039 3.20703V11.7734C17.5039 12.0859 17.3203 12.3633 17.0352 12.4883C16.6953 12.6367 15.4531 13.125 13.7539 13.125C12.8125 13.125 11.6289 12.8477 10.3789 12.5508C8.97266 12.2188 7.51953 11.875 6.25391 11.875C4.8125 11.875 4.07812 12.0938 3.75391 12.2305V18.125C3.75 18.4688 3.46875 18.75 3.125 18.75ZM6.25 10.625C7.66406 10.625 9.25781 11 10.6641 11.332C11.8398 11.6094 12.9531 11.875 13.75 11.875C14.8984 11.875 15.7852 11.625 16.25 11.457V3.98828C15.4453 4.24219 14.6055 4.37109 13.75 4.375C12.793 4.375 11.6055 3.95312 10.3437 3.51172C8.94141 3.01172 7.48828 2.5 6.25 2.5C4.80078 2.5 4.06641 2.71875 3.75 2.85547V10.9102C4.29688 10.7539 5.09766 10.625 6.25 10.625Z" fill="#CCCCCC"/>
</svg>
