<svg width="24" height="24" viewBox="0 0 24 24" fill="none" xmlns="http://www.w3.org/2000/svg">
<path fill-rule="evenodd" clip-rule="evenodd" d="M1.5 12C1.5 11.5858 1.83579 11.25 2.25 11.25H21.75C22.1642 11.25 22.5 11.5858 22.5 12C22.5 12.4142 22.1642 12.75 21.75 12.75H2.25C1.83579 12.75 1.5 12.4142 1.5 12Z" fill="#B0B0B0"/>
<path fill-rule="evenodd" clip-rule="evenodd" d="M17.25 6.75C17.25 5.92157 17.9216 5.25 18.75 5.25C19.5784 5.25 20.25 5.92157 20.25 6.75V17.25C20.25 18.0784 19.5784 18.75 18.75 18.75C17.9216 18.75 17.25 18.0784 17.25 17.25V6.75Z" fill="#B0B0B0"/>
<path fill-rule="evenodd" clip-rule="evenodd" d="M3.75 6.75C3.75 5.92157 4.42157 5.25 5.25 5.25C6.07843 5.25 6.75 5.92157 6.75 6.75V17.25C6.75 18.0784 6.07843 18.75 5.25 18.75C4.42157 18.75 3.75 18.0784 3.75 17.25V6.75Z" fill="#B0B0B0"/>
<path fill-rule="evenodd" clip-rule="evenodd" d="M0.75 9.375C0.75 8.75368 1.25368 8.25 1.875 8.25C2.49632 8.25 3 8.75368 3 9.375V14.625C3 15.2463 2.49632 15.75 1.875 15.75C1.25368 15.75 0.75 15.2463 0.75 14.625V9.375Z" fill="#B0B0B0"/>
<path fill-rule="evenodd" clip-rule="evenodd" d="M21 9.375C21 8.75368 21.5037 8.25 22.125 8.25C22.7463 8.25 23.25 8.75368 23.25 9.375V14.625C23.25 15.2463 22.7463 15.75 22.125 15.75C21.5037 15.75 21 15.2463 21 14.625V9.375Z" fill="#B0B0B0"/>
</svg>
